<?xml version='1.0' encoding='UTF-8' standalone='no'?>
<!-- Created with Inkscape (http://www.inkscape.org/) -->
<svg xmlns="http://www.w3.org/2000/svg" height="74.285713" id="svg7577" version="1.1"  gorn="0" width="74.285713">
    <desc >
        <referenceFile >DB25F.svg</referenceFile>
    </desc>
    <defs id="defs7579" />
    <metadata id="metadata7582" >
        <rdf:RDF xmlns:rdf="http://www.w3.org/1999/02/22-rdf-syntax-ns#">
            <cc:Work xmlns:rdf="http://www.w3.org/1999/02/22-rdf-syntax-ns#" xmlns:cc="http://creativecommons.org/ns#" rdf:about="">
                <dc:format xmlns:dc="http://purl.org/dc/elements/1.1/">image/svg+xml</dc:format>
                <dc:type xmlns:rdf="http://www.w3.org/1999/02/22-rdf-syntax-ns#" xmlns:dc="http://purl.org/dc/elements/1.1/" rdf:resource="http://purl.org/dc/dcmitype/StillImage"/>
                <dc:title xmlns:dc="http://purl.org/dc/elements/1.1/"/>
            </cc:Work>
        </rdf:RDF>
    </metadata>
    <rect height="74.285713" id="rect8310" x="0" style="color:#000000;fill:#bfbfbf;fill-opacity:1;fill-rule:nonzero;stroke:none;stroke-width:1;marker:none;visibility:visible;display:inline;overflow:visible;enable-background:accumulate"  gorn="0.3" y="-2.5231932e-07" width="74.285713"/>
    <rect height="54.785713" id="rect8312" x="0" style="color:#000000;fill:#666666;fill-opacity:1;fill-rule:nonzero;stroke:none;stroke-width:1;marker:none;visibility:visible;display:inline;overflow:visible;enable-background:accumulate"  gorn="0.4" y="8.9642849" width="68.071426"/>
    <rect height="50.964287" id="rect7660" x="0" style="color:#000000;fill:#8c8c8c;fill-opacity:1;fill-rule:nonzero;stroke:none;stroke-width:1;marker:none;visibility:visible;display:inline;overflow:visible;enable-background:accumulate"  gorn="0.5" y="10.999998" width="65.89286"/>
    <path id="path7788" style="color:#000000;fill:#b5b5b5;fill-opacity:1;fill-rule:nonzero;stroke:none;stroke-width:1;marker:none;visibility:visible;display:inline;overflow:visible;enable-background:accumulate"  gorn="0.6" d="m 54.51252,21.016861 c 2.00121,1.910791 3.17594,4.54472 2.78842,7.43727 l -2,14.928556 c -0.38752,2.89255 -1.56225,5.526479 -3.3697,7.437269 L 40.46579,48.909643 36.67772,22.393139 z"/>
    <path id="path7795" style="color:#000000;fill:#dadada;fill-opacity:1;fill-rule:nonzero;stroke:none;stroke-width:1;marker:none;visibility:visible;display:inline;overflow:visible;enable-background:accumulate"  gorn="0.7" d="m 0,17.929999 46.76523,-0.01158 c 2.91839,-7.23e-4 5.74608,1.187654 7.74729,3.098444 L 31.89489,37.366856 0,37.999999 z"/>
    <path id="rect7650" style="color:#000000;fill:#666666;fill-opacity:1;fill-rule:nonzero;stroke:none;stroke-width:1;marker:none;visibility:visible;display:inline;overflow:visible;enable-background:accumulate"  gorn="0.8" d="m 51.93124,50.819956 c -1.80745,1.910791 -4.24762,3.098445 -7.16601,3.098445 L 0,53.918401 0,37.999999 25.56604,34.009893 z"/>
    <path id="path7665" style="color:#000000;fill:#1b5bb3;fill-opacity:1;fill-rule:nonzero;stroke:none;stroke-width:1;marker:none;visibility:visible;display:inline;overflow:visible;enable-background:accumulate"  gorn="0.9" d="m 0.00361,20.418417 44.57075,-1e-6 c 5.17088,0 10.02033,4.043677 9.33371,8.967898 l -1.77182,12.707045 c -0.68661,4.924221 -4.16284,8.967898 -9.33372,8.967898 l -42.80923,0 z"/>
    <g transform="translate(-183.27646,-24.80618)" >
        <g >
            <g >
                <g id="g8342"  gorn="0.10.0.0.0">
                    <g transform="matrix(-1,0,0,-1,456.33944,106.6935)" >
                        <g >
                            <g >
                                <g id="g8336"  gorn="0.10.0.0.0.0.0.0.0">
                                    <path id="path8328" style="fill:#418dd9;fill-opacity:1;fill-rule:evenodd;stroke:none"  gorn="0.10.0.0.0.0.0.0.0.0" d="m 225.90987,55.632593 c -0.58167,-0.581671 -0.94144,-1.385243 -0.94144,-2.272843 0,-1.775201 1.43908,-3.214286 3.21428,-3.214286 0.88612,0 1.68865,0.358618 2.27017,0.938767"/>
                                    <path id="path8334" style="fill:#154588;fill-opacity:1;fill-rule:evenodd;stroke:none"  gorn="0.10.0.0.0.0.0.0.0.1" d="m 230.42957,51.060914 c 0.58167,0.58167 0.94144,1.38524 0.94144,2.27284 0,1.7752 -1.43908,3.21429 -3.21428,3.21429 -0.88612,0 -1.68865,-0.35862 -2.27017,-0.93877"/>
                                </g>
                            </g>
                        </g>
                    </g>
                    <g transform="matrix(0.84705883,0,0,0.84705883,34.386103,7.5559319)" >
                        <g >
                            <g >
                                <path id="path8340" style="fill:#000000;fill-opacity:1;fill-rule:evenodd;stroke:none"  gorn="0.10.0.0.0.1.0.0.0" d="m 230.66965,54.058609 c 0,1.047862 -0.84946,1.897321 -1.89733,1.897321 -1.04786,0 -1.89732,-0.849459 -1.89732,-1.897321 0,-1.047862 0.84946,-1.897321 1.89732,-1.897321 1.04612,0 1.89486,0.846738 1.89732,1.892851"/>
                            </g>
                        </g>
                    </g>
                </g>
            </g>
        </g>
    </g>
    <g transform="translate(-190.95503,-11.591893)" >
        <g >
            <g >
                <g id="g8348"  gorn="0.11.0.0.0">
                    <g transform="matrix(-1,0,0,-1,456.33944,106.6935)" >
                        <g >
                            <g >
                                <g id="g8350"  gorn="0.11.0.0.0.0.0.0.0">
                                    <path id="path8352" style="fill:#418dd9;fill-opacity:1;fill-rule:evenodd;stroke:none"  gorn="0.11.0.0.0.0.0.0.0.0" d="m 225.90987,55.632593 c -0.58167,-0.581671 -0.94144,-1.385243 -0.94144,-2.272843 0,-1.775201 1.43908,-3.214286 3.21428,-3.214286 0.88612,0 1.68865,0.358618 2.27017,0.938767"/>
                                    <path id="path8354" style="fill:#154588;fill-opacity:1;fill-rule:evenodd;stroke:none"  gorn="0.11.0.0.0.0.0.0.0.1" d="m 230.42957,51.060914 c 0.58167,0.58167 0.94144,1.38524 0.94144,2.27284 0,1.7752 -1.43908,3.21429 -3.21428,3.21429 -0.88612,0 -1.68865,-0.35862 -2.27017,-0.93877"/>
                                </g>
                            </g>
                        </g>
                    </g>
                    <g transform="matrix(0.84705883,0,0,0.84705883,34.386103,7.5559319)" >
                        <g >
                            <g >
                                <path id="path8356" style="fill:#000000;fill-opacity:1;fill-rule:evenodd;stroke:none"  gorn="0.11.0.0.0.1.0.0.0" d="m 230.66965,54.058609 c 0,1.047862 -0.84946,1.897321 -1.89733,1.897321 -1.04786,0 -1.89732,-0.849459 -1.89732,-1.897321 0,-1.047862 0.84946,-1.897321 1.89732,-1.897321 1.04612,0 1.89486,0.846738 1.89732,1.892851"/>
                            </g>
                        </g>
                    </g>
                </g>
            </g>
        </g>
    </g>
    <g transform="translate(-196.6098,-24.80618)" >
        <g >
            <g >
                <g id="g8358"  gorn="0.12.0.0.0">
                    <g transform="matrix(-1,0,0,-1,456.33944,106.6935)" >
                        <g >
                            <g >
                                <g id="g8360"  gorn="0.12.0.0.0.0.0.0.0">
                                    <path id="path8362" style="fill:#418dd9;fill-opacity:1;fill-rule:evenodd;stroke:none"  gorn="0.12.0.0.0.0.0.0.0.0" d="m 225.90987,55.632593 c -0.58167,-0.581671 -0.94144,-1.385243 -0.94144,-2.272843 0,-1.775201 1.43908,-3.214286 3.21428,-3.214286 0.88612,0 1.68865,0.358618 2.27017,0.938767"/>
                                    <path id="path8364" style="fill:#154588;fill-opacity:1;fill-rule:evenodd;stroke:none"  gorn="0.12.0.0.0.0.0.0.0.1" d="m 230.42957,51.060914 c 0.58167,0.58167 0.94144,1.38524 0.94144,2.27284 0,1.7752 -1.43908,3.21429 -3.21428,3.21429 -0.88612,0 -1.68865,-0.35862 -2.27017,-0.93877"/>
                                </g>
                            </g>
                        </g>
                    </g>
                    <g transform="matrix(0.84705883,0,0,0.84705883,34.386103,7.5559319)" >
                        <g >
                            <g >
                                <path id="path8366" style="fill:#000000;fill-opacity:1;fill-rule:evenodd;stroke:none"  gorn="0.12.0.0.0.1.0.0.0" d="m 230.66965,54.058609 c 0,1.047862 -0.84946,1.897321 -1.89733,1.897321 -1.04786,0 -1.89732,-0.849459 -1.89732,-1.897321 0,-1.047862 0.84946,-1.897321 1.89732,-1.897321 1.04612,0 1.89486,0.846738 1.89732,1.892851"/>
                            </g>
                        </g>
                    </g>
                </g>
            </g>
        </g>
    </g>
    <g transform="translate(-203.95503,-11.591893)" >
        <g >
            <g >
                <g id="g8368"  gorn="0.13.0.0.0">
                    <g transform="matrix(-1,0,0,-1,456.33944,106.6935)" >
                        <g >
                            <g >
                                <g id="g8370"  gorn="0.13.0.0.0.0.0.0.0">
                                    <path id="path8372" style="fill:#418dd9;fill-opacity:1;fill-rule:evenodd;stroke:none"  gorn="0.13.0.0.0.0.0.0.0.0" d="m 225.90987,55.632593 c -0.58167,-0.581671 -0.94144,-1.385243 -0.94144,-2.272843 0,-1.775201 1.43908,-3.214286 3.21428,-3.214286 0.88612,0 1.68865,0.358618 2.27017,0.938767"/>
                                    <path id="path8374" style="fill:#154588;fill-opacity:1;fill-rule:evenodd;stroke:none"  gorn="0.13.0.0.0.0.0.0.0.1" d="m 230.42957,51.060914 c 0.58167,0.58167 0.94144,1.38524 0.94144,2.27284 0,1.7752 -1.43908,3.21429 -3.21428,3.21429 -0.88612,0 -1.68865,-0.35862 -2.27017,-0.93877"/>
                                </g>
                            </g>
                        </g>
                    </g>
                    <g transform="matrix(0.84705883,0,0,0.84705883,34.386103,7.5559319)" >
                        <g >
                            <g >
                                <path id="path8376" style="fill:#000000;fill-opacity:1;fill-rule:evenodd;stroke:none"  gorn="0.13.0.0.0.1.0.0.0" d="m 230.66965,54.058609 c 0,1.047862 -0.84946,1.897321 -1.89733,1.897321 -1.04786,0 -1.89732,-0.849459 -1.89732,-1.897321 0,-1.047862 0.84946,-1.897321 1.89732,-1.897321 1.04612,0 1.89486,0.846738 1.89732,1.892851"/>
                            </g>
                        </g>
                    </g>
                </g>
            </g>
        </g>
    </g>
    <g transform="translate(-209.94313,-24.80618)" >
        <g >
            <g >
                <g id="g8378"  gorn="0.14.0.0.0">
                    <g transform="matrix(-1,0,0,-1,456.33944,106.6935)" >
                        <g >
                            <g >
                                <g id="g8380"  gorn="0.14.0.0.0.0.0.0.0">
                                    <path id="path8382" style="fill:#418dd9;fill-opacity:1;fill-rule:evenodd;stroke:none"  gorn="0.14.0.0.0.0.0.0.0.0" d="m 225.90987,55.632593 c -0.58167,-0.581671 -0.94144,-1.385243 -0.94144,-2.272843 0,-1.775201 1.43908,-3.214286 3.21428,-3.214286 0.88612,0 1.68865,0.358618 2.27017,0.938767"/>
                                    <path id="path8384" style="fill:#154588;fill-opacity:1;fill-rule:evenodd;stroke:none"  gorn="0.14.0.0.0.0.0.0.0.1" d="m 230.42957,51.060914 c 0.58167,0.58167 0.94144,1.38524 0.94144,2.27284 0,1.7752 -1.43908,3.21429 -3.21428,3.21429 -0.88612,0 -1.68865,-0.35862 -2.27017,-0.93877"/>
                                </g>
                            </g>
                        </g>
                    </g>
                    <g transform="matrix(0.84705883,0,0,0.84705883,34.386103,7.5559319)" >
                        <g >
                            <g >
                                <path id="path8386" style="fill:#000000;fill-opacity:1;fill-rule:evenodd;stroke:none"  gorn="0.14.0.0.0.1.0.0.0" d="m 230.66965,54.058609 c 0,1.047862 -0.84946,1.897321 -1.89733,1.897321 -1.04786,0 -1.89732,-0.849459 -1.89732,-1.897321 0,-1.047862 0.84946,-1.897321 1.89732,-1.897321 1.04612,0 1.89486,0.846738 1.89732,1.892851"/>
                            </g>
                        </g>
                    </g>
                </g>
            </g>
        </g>
    </g>
    <g transform="translate(-216.95503,-11.591893)" >
        <g >
            <g >
                <g id="g8388"  gorn="0.15.0.0.0">
                    <g transform="matrix(-1,0,0,-1,456.33944,106.6935)" >
                        <g >
                            <g >
                                <g id="g8390"  gorn="0.15.0.0.0.0.0.0.0">
                                    <path id="path8392" style="fill:#418dd9;fill-opacity:1;fill-rule:evenodd;stroke:none"  gorn="0.15.0.0.0.0.0.0.0.0" d="m 225.90987,55.632593 c -0.58167,-0.581671 -0.94144,-1.385243 -0.94144,-2.272843 0,-1.775201 1.43908,-3.214286 3.21428,-3.214286 0.88612,0 1.68865,0.358618 2.27017,0.938767"/>
                                    <path id="path8394" style="fill:#154588;fill-opacity:1;fill-rule:evenodd;stroke:none"  gorn="0.15.0.0.0.0.0.0.0.1" d="m 230.42957,51.060914 c 0.58167,0.58167 0.94144,1.38524 0.94144,2.27284 0,1.7752 -1.43908,3.21429 -3.21428,3.21429 -0.88612,0 -1.68865,-0.35862 -2.27017,-0.93877"/>
                                </g>
                            </g>
                        </g>
                    </g>
                    <g transform="matrix(0.84705883,0,0,0.84705883,34.386103,7.5559319)" >
                        <g >
                            <g >
                                <path id="path8396" style="fill:#000000;fill-opacity:1;fill-rule:evenodd;stroke:none"  gorn="0.15.0.0.0.1.0.0.0" d="m 230.66965,54.058609 c 0,1.047862 -0.84946,1.897321 -1.89733,1.897321 -1.04786,0 -1.89732,-0.849459 -1.89732,-1.897321 0,-1.047862 0.84946,-1.897321 1.89732,-1.897321 1.04612,0 1.89486,0.846738 1.89732,1.892851"/>
                            </g>
                        </g>
                    </g>
                </g>
            </g>
        </g>
    </g>
    <g transform="translate(-223.27646,-24.80618)" >
        <g >
            <g >
                <g id="g8398"  gorn="0.16.0.0.0">
                    <g transform="matrix(-1,0,0,-1,456.33944,106.6935)" >
                        <g >
                            <g >
                                <g id="g8400"  gorn="0.16.0.0.0.0.0.0.0">
                                    <path id="path8402" style="fill:#418dd9;fill-opacity:1;fill-rule:evenodd;stroke:none"  gorn="0.16.0.0.0.0.0.0.0.0" d="m 225.90987,55.632593 c -0.58167,-0.581671 -0.94144,-1.385243 -0.94144,-2.272843 0,-1.775201 1.43908,-3.214286 3.21428,-3.214286 0.88612,0 1.68865,0.358618 2.27017,0.938767"/>
                                    <path id="path8404" style="fill:#154588;fill-opacity:1;fill-rule:evenodd;stroke:none"  gorn="0.16.0.0.0.0.0.0.0.1" d="m 230.42957,51.060914 c 0.58167,0.58167 0.94144,1.38524 0.94144,2.27284 0,1.7752 -1.43908,3.21429 -3.21428,3.21429 -0.88612,0 -1.68865,-0.35862 -2.27017,-0.93877"/>
                                </g>
                            </g>
                        </g>
                    </g>
                    <g transform="matrix(0.84705883,0,0,0.84705883,34.386103,7.5559319)" >
                        <g >
                            <g >
                                <path id="path8406" style="fill:#000000;fill-opacity:1;fill-rule:evenodd;stroke:none"  gorn="0.16.0.0.0.1.0.0.0" d="m 230.66965,54.058609 c 0,1.047862 -0.84946,1.897321 -1.89733,1.897321 -1.04786,0 -1.89732,-0.849459 -1.89732,-1.897321 0,-1.047862 0.84946,-1.897321 1.89732,-1.897321 1.04612,0 1.89486,0.846738 1.89732,1.892851"/>
                            </g>
                        </g>
                    </g>
                </g>
            </g>
        </g>
    </g>
</svg>
